%TF.GenerationSoftware,KiCad,Pcbnew,9.0.7*%
%TF.CreationDate,2026-03-13T00:08:13-02:30*%
%TF.ProjectId,riley-penny-custom,72696c65-792d-4706-956e-6e792d637573,rev?*%
%TF.SameCoordinates,Original*%
%TF.FileFunction,Copper,L3,Inr*%
%TF.FilePolarity,Positive*%
%FSLAX46Y46*%
G04 Gerber Fmt 4.6, Leading zero omitted, Abs format (unit mm)*
G04 Created by KiCad (PCBNEW 9.0.7) date 2026-03-13 00:08:13*
%MOMM*%
%LPD*%
G01*
G04 APERTURE LIST*
%TA.AperFunction,ComponentPad*%
%ADD10C,1.200000*%
%TD*%
%TA.AperFunction,ComponentPad*%
%ADD11R,1.200000X1.200000*%
%TD*%
%TA.AperFunction,ComponentPad*%
%ADD12O,4.000000X1.500000*%
%TD*%
%TA.AperFunction,ComponentPad*%
%ADD13O,1.500000X4.000000*%
%TD*%
%TA.AperFunction,ComponentPad*%
%ADD14C,2.540000*%
%TD*%
%TA.AperFunction,ComponentPad*%
%ADD15O,3.000000X1.400000*%
%TD*%
%TA.AperFunction,ComponentPad*%
%ADD16O,1.400000X3.000000*%
%TD*%
%TA.AperFunction,ComponentPad*%
%ADD17C,1.400000*%
%TD*%
%TA.AperFunction,ComponentPad*%
%ADD18O,1.400000X1.400000*%
%TD*%
%TA.AperFunction,ComponentPad*%
%ADD19R,1.600000X1.600000*%
%TD*%
%TA.AperFunction,ComponentPad*%
%ADD20O,1.600000X1.600000*%
%TD*%
%TA.AperFunction,ComponentPad*%
%ADD21C,1.600000*%
%TD*%
%TA.AperFunction,ComponentPad*%
%ADD22R,1.700000X1.700000*%
%TD*%
%TA.AperFunction,ComponentPad*%
%ADD23O,1.700000X1.700000*%
%TD*%
%TA.AperFunction,ComponentPad*%
%ADD24R,2.000000X2.000000*%
%TD*%
%TA.AperFunction,ComponentPad*%
%ADD25C,2.000000*%
%TD*%
%TA.AperFunction,ComponentPad*%
%ADD26C,1.500000*%
%TD*%
%TA.AperFunction,ComponentPad*%
%ADD27O,3.800000X2.400000*%
%TD*%
%TA.AperFunction,ViaPad*%
%ADD28C,0.800000*%
%TD*%
%TA.AperFunction,Conductor*%
%ADD29C,0.500000*%
%TD*%
G04 APERTURE END LIST*
D10*
%TO.N,Net-(C41-Pad2)*%
%TO.C,C41*%
X26700000Y-8530000D03*
D11*
%TO.N,Net-(C39-Pad2)*%
X26700000Y-7030000D03*
%TD*%
D10*
%TO.N,/blues-driver/vol_out*%
%TO.C,C32*%
X33300000Y-8550000D03*
D11*
%TO.N,Net-(C31-Pad2)*%
X33300000Y-7050000D03*
%TD*%
D12*
%TO.N,Earth*%
%TO.C,J1*%
X0Y29800000D03*
%TO.N,Net-(Q1-D)*%
X0Y35800000D03*
D13*
%TO.N,unconnected-(J1-Pad3)*%
X-4700000Y32800000D03*
%TD*%
D14*
%TO.N,/input_jack*%
%TO.C,J2*%
X-44250000Y23650000D03*
%TO.N,Earth*%
X-44250000Y30000000D03*
X-44250000Y36350000D03*
X-27750000Y23650000D03*
X-27750000Y30000000D03*
X-27750000Y36350000D03*
%TD*%
%TO.N,/output_jack*%
%TO.C,J3*%
X27750000Y23650000D03*
%TO.N,Earth*%
X27750000Y30000000D03*
X27750000Y36350000D03*
X44250000Y23650000D03*
X44250000Y30000000D03*
X44250000Y36350000D03*
%TD*%
D15*
%TO.N,Earth*%
%TO.C,G1*%
X49700000Y34500000D03*
D16*
X53000000Y30000000D03*
D15*
X49700000Y25500000D03*
%TD*%
D17*
%TO.N,Net-(D4-A)*%
%TO.C,R11*%
X-41000000Y-3620000D03*
D18*
%TO.N,Net-(R11-Pad2)*%
X-36000000Y-3620000D03*
%TD*%
D17*
%TO.N,/blues-driver/vol_out*%
%TO.C,R42*%
X52500000Y-4700000D03*
D18*
%TO.N,Net-(R42-Pad2)*%
X47500000Y-4700000D03*
%TD*%
D17*
%TO.N,Earth*%
%TO.C,R57*%
X22375000Y-6540000D03*
D18*
%TO.N,Net-(C41-Pad2)*%
X17375000Y-6540000D03*
%TD*%
D19*
%TO.N,Net-(D7-K)*%
%TO.C,D8*%
X-14000000Y1150000D03*
D20*
%TO.N,Earth*%
X-19000000Y1150000D03*
%TD*%
D19*
%TO.N,Net-(D5-K)*%
%TO.C,D5*%
X-14000000Y8500000D03*
D20*
%TO.N,Net-(D5-A)*%
X-19000000Y8500000D03*
%TD*%
D19*
%TO.N,Net-(D11-A)*%
%TO.C,D12*%
X22500000Y900000D03*
D20*
%TO.N,Net-(D11-K)*%
X17500000Y900000D03*
%TD*%
D21*
%TO.N,Earth*%
%TO.C,C28*%
X23100000Y27733333D03*
%TO.N,Net-(C28-Pad2)*%
X18100000Y27733333D03*
%TD*%
D17*
%TO.N,/blues-driver/4.5V*%
%TO.C,R48*%
X43300000Y-66667D03*
D18*
%TO.N,Net-(D11-A)*%
X38300000Y-66667D03*
%TD*%
D21*
%TO.N,/zendrive_send*%
%TO.C,C3*%
X-50975000Y-2800000D03*
%TO.N,Net-(U2A-+)*%
X-45975000Y-2800000D03*
%TD*%
%TO.N,Net-(C20-Pad1)*%
%TO.C,C20*%
X2500000Y4400000D03*
%TO.N,Net-(D5-K)*%
X-2500000Y4400000D03*
%TD*%
D22*
%TO.N,Earth*%
%TO.C,J5*%
X23650000Y-17500000D03*
D23*
%TO.N,unconnected-(J5-Pin_2-Pad2)*%
X26190000Y-17500000D03*
%TO.N,/bluesdriver-send*%
X28730000Y-17500000D03*
%TO.N,/bluesdriver-return*%
X31270000Y-17500000D03*
%TO.N,/output_jack*%
X33810000Y-17500000D03*
%TO.N,/V+1*%
X36350000Y-17500000D03*
%TD*%
D19*
%TO.N,Net-(D5-A)*%
%TO.C,D6*%
X-14000000Y6050000D03*
D20*
%TO.N,Earth*%
X-19000000Y6050000D03*
%TD*%
D17*
%TO.N,Net-(D5-K)*%
%TO.C,R27*%
X-6400000Y3650000D03*
D18*
%TO.N,Net-(C19-Pad2)*%
X-11400000Y3650000D03*
%TD*%
D21*
%TO.N,Net-(C23-Pad1)*%
%TO.C,C23*%
X18100000Y40300000D03*
%TO.N,Earth*%
X23100000Y40300000D03*
%TD*%
D19*
%TO.N,Net-(D1-K)*%
%TO.C,C1*%
X-14300000Y37550000D03*
D21*
%TO.N,Earth*%
X-14300000Y40050000D03*
%TD*%
D17*
%TO.N,Net-(C23-Pad1)*%
%TO.C,R33*%
X12600000Y41200000D03*
D18*
%TO.N,Net-(D9-A)*%
X7600000Y41200000D03*
%TD*%
D21*
%TO.N,Net-(C10-Pad1)*%
%TO.C,C10*%
X-24000000Y-2800000D03*
%TO.N,Net-(C10-Pad2)*%
X-19000000Y-2800000D03*
%TD*%
D17*
%TO.N,Net-(C8-Pad2)*%
%TO.C,R12*%
X-36000000Y-1500000D03*
D18*
%TO.N,Net-(U2B--)*%
X-41000000Y-1500000D03*
%TD*%
D17*
%TO.N,Net-(C36-Pad2)*%
%TO.C,R50*%
X43300000Y4400000D03*
D18*
%TO.N,Net-(U4B--)*%
X38300000Y4400000D03*
%TD*%
D17*
%TO.N,Net-(U2B--)*%
%TO.C,R13*%
X-27500000Y12800000D03*
D18*
%TO.N,Net-(C10-Pad1)*%
X-32500000Y12800000D03*
%TD*%
D17*
%TO.N,Net-(C16-Pad1)*%
%TO.C,R23*%
X-6400000Y-11800000D03*
D18*
%TO.N,Net-(Q5A-G1)*%
X-11400000Y-11800000D03*
%TD*%
D19*
%TO.N,Net-(D2-K)*%
%TO.C,D2*%
X-46100000Y8300000D03*
D20*
%TO.N,Net-(D2-A)*%
X-51100000Y8300000D03*
%TD*%
D21*
%TO.N,Net-(U2B-+)*%
%TO.C,C7*%
X-24000000Y-11200000D03*
%TO.N,Earth*%
X-19000000Y-11200000D03*
%TD*%
D17*
%TO.N,Net-(C35-Pad2)*%
%TO.C,R47*%
X43300000Y2166667D03*
D18*
%TO.N,Net-(D11-A)*%
X38300000Y2166667D03*
%TD*%
D21*
%TO.N,Net-(U3A--)*%
%TO.C,C33*%
X43300000Y-8200000D03*
%TO.N,Net-(C33-Pad2)*%
X38300000Y-8200000D03*
%TD*%
%TO.N,Net-(C38-Pad2)*%
%TO.C,C40*%
X7500000Y-7500000D03*
%TO.N,Net-(Q9-B)*%
X12500000Y-7500000D03*
%TD*%
D17*
%TO.N,/blues-driver/4.5V*%
%TO.C,R53*%
X17375000Y-10900000D03*
D18*
%TO.N,Net-(SW2A-A)*%
X22375000Y-10900000D03*
%TD*%
D17*
%TO.N,Net-(C21-Pad2)*%
%TO.C,R28*%
X-11400000Y6100000D03*
D18*
%TO.N,Net-(D5-K)*%
X-6400000Y6100000D03*
%TD*%
D24*
%TO.N,/blues-driver/4.5V*%
%TO.C,RV6*%
X50000000Y13500000D03*
D25*
%TO.N,Net-(R40-Pad1)*%
X45000000Y13500000D03*
%TO.N,Net-(C29-Pad2)*%
X40000000Y13500000D03*
%TD*%
D17*
%TO.N,Net-(D11-K)*%
%TO.C,R54*%
X43300000Y-2300000D03*
D18*
%TO.N,Net-(C39-Pad2)*%
X38300000Y-2300000D03*
%TD*%
D26*
%TO.N,Net-(Q6-C)*%
%TO.C,C19*%
X1250000Y1400000D03*
%TO.N,Net-(C19-Pad2)*%
X-1250000Y1400000D03*
%TD*%
D21*
%TO.N,Net-(C36-Pad2)*%
%TO.C,C37*%
X43300000Y10200000D03*
%TO.N,Net-(SW2B-C)*%
X38300000Y10200000D03*
%TD*%
D19*
%TO.N,Net-(D7-K)*%
%TO.C,D7*%
X-14000000Y3600000D03*
D20*
%TO.N,Net-(D5-K)*%
X-19000000Y3600000D03*
%TD*%
D17*
%TO.N,/blues-driver/sw_8*%
%TO.C,R37*%
X12600000Y25400000D03*
D18*
%TO.N,Net-(C27-Pad2)*%
X7600000Y25400000D03*
%TD*%
D21*
%TO.N,Net-(C15-Pad1)*%
%TO.C,C15*%
X-2500000Y-9800000D03*
%TO.N,Net-(Q5B-G1)*%
X2500000Y-9800000D03*
%TD*%
D24*
%TO.N,Net-(R45-Pad1)*%
%TO.C,RV7*%
X20000000Y-14500000D03*
D25*
%TO.N,Net-(C33-Pad2)*%
X15000000Y-14500000D03*
%TO.N,Net-(R42-Pad2)*%
X10000000Y-14500000D03*
%TD*%
D24*
%TO.N,Net-(RV5A-4)*%
%TO.C,RV5*%
X20000000Y13300000D03*
D25*
%TO.N,Net-(Q6-C)*%
X15000000Y13300000D03*
X10000000Y13300000D03*
D24*
%TO.N,Net-(R34-Pad2)*%
X20000000Y18300000D03*
D25*
%TO.N,/blues-driver/sw_8*%
X15000000Y18300000D03*
X10000000Y18300000D03*
%TD*%
D21*
%TO.N,Net-(D11-K)*%
%TO.C,C39*%
X43300000Y-5000000D03*
%TO.N,Net-(C39-Pad2)*%
X38300000Y-5000000D03*
%TD*%
D17*
%TO.N,Net-(D3-A)*%
%TO.C,R9*%
X-41000000Y8300000D03*
D18*
%TO.N,Net-(R9-Pad2)*%
X-36000000Y8300000D03*
%TD*%
D19*
%TO.N,/blues-driver/4.5V*%
%TO.C,C43*%
X-14300000Y28250000D03*
D21*
%TO.N,Earth*%
X-14300000Y30750000D03*
%TD*%
D17*
%TO.N,Net-(C26-Pad2)*%
%TO.C,R36*%
X7600000Y27700000D03*
D18*
%TO.N,Net-(C27-Pad2)*%
X12600000Y27700000D03*
%TD*%
D17*
%TO.N,Net-(R45-Pad1)*%
%TO.C,R45*%
X52500000Y-9500000D03*
D18*
%TO.N,Net-(C35-Pad2)*%
X47500000Y-9500000D03*
%TD*%
D21*
%TO.N,Earth*%
%TO.C,C8*%
X-19000000Y-7000000D03*
%TO.N,Net-(C8-Pad2)*%
X-24000000Y-7000000D03*
%TD*%
D19*
%TO.N,Net-(D2-A)*%
%TO.C,D4*%
X-46100000Y10600000D03*
D20*
%TO.N,Net-(D4-A)*%
X-51100000Y10600000D03*
%TD*%
D21*
%TO.N,/blues-driver/sw_8*%
%TO.C,C26*%
X18100000Y36700000D03*
%TO.N,Net-(C26-Pad2)*%
X23100000Y36700000D03*
%TD*%
D17*
%TO.N,/blues-driver/4.5V*%
%TO.C,R30*%
X-11400000Y11000000D03*
D18*
%TO.N,Net-(Q7A-G1)*%
X-6400000Y11000000D03*
%TD*%
D22*
%TO.N,Earth*%
%TO.C,J4*%
X-36350000Y-17500000D03*
D23*
%TO.N,/input_jack*%
X-33810000Y-17500000D03*
%TO.N,/zendrive_send*%
X-31270000Y-17500000D03*
%TO.N,/zendrive_return*%
X-28730000Y-17500000D03*
%TO.N,unconnected-(J4-Pin_5-Pad5)*%
X-26190000Y-17500000D03*
%TO.N,/V+0*%
X-23650000Y-17500000D03*
%TD*%
D17*
%TO.N,Earth*%
%TO.C,R58*%
X12500000Y500000D03*
D18*
%TO.N,Net-(Q9-E)*%
X7500000Y500000D03*
%TD*%
D19*
%TO.N,Net-(D3-K)*%
%TO.C,D3*%
X-46100000Y6000000D03*
D20*
%TO.N,Net-(D3-A)*%
X-51100000Y6000000D03*
%TD*%
D17*
%TO.N,Net-(C4-Pad2)*%
%TO.C,R7*%
X-36000000Y-12100000D03*
D18*
%TO.N,Net-(R7-Pad2)*%
X-41000000Y-12100000D03*
%TD*%
D21*
%TO.N,/blues-driver/sw_3*%
%TO.C,C30*%
X18100000Y21200000D03*
%TO.N,Net-(C29-Pad2)*%
X23100000Y21200000D03*
%TD*%
D17*
%TO.N,Net-(C20-Pad1)*%
%TO.C,R26*%
X-6400000Y1200000D03*
D18*
%TO.N,Net-(Q6-C)*%
X-11400000Y1200000D03*
%TD*%
D17*
%TO.N,Net-(R44-Pad1)*%
%TO.C,R44*%
X52500000Y-2300000D03*
D18*
%TO.N,Net-(U3A--)*%
X47500000Y-2300000D03*
%TD*%
D17*
%TO.N,Net-(R40-Pad1)*%
%TO.C,R40*%
X48000000Y21200000D03*
D18*
%TO.N,Net-(U3B--)*%
X53000000Y21200000D03*
%TD*%
D17*
%TO.N,Net-(U3B--)*%
%TO.C,R41*%
X53000000Y19000000D03*
D18*
%TO.N,Net-(C31-Pad2)*%
X48000000Y19000000D03*
%TD*%
D17*
%TO.N,/Zendrive/4.5V*%
%TO.C,R5*%
X-36000000Y-5740000D03*
D18*
%TO.N,Net-(U2A-+)*%
X-41000000Y-5740000D03*
%TD*%
D17*
%TO.N,Net-(C41-Pad2)*%
%TO.C,R59*%
X22375000Y-8720000D03*
D18*
%TO.N,/bluesdriver-return*%
X17375000Y-8720000D03*
%TD*%
D19*
%TO.N,Net-(D10-K)*%
%TO.C,D9*%
X12500000Y7400000D03*
D20*
%TO.N,Net-(D9-A)*%
X7500000Y7400000D03*
%TD*%
D24*
%TO.N,Earth*%
%TO.C,RV4*%
X-10000000Y13500000D03*
D25*
%TO.N,/zendrive_return*%
X-15000000Y13500000D03*
%TO.N,Net-(R14-Pad2)*%
X-20000000Y13500000D03*
%TD*%
D21*
%TO.N,Net-(C34-Pad1)*%
%TO.C,C34*%
X43300000Y-11400000D03*
%TO.N,Net-(C34-Pad2)*%
X38300000Y-11400000D03*
%TD*%
D17*
%TO.N,Net-(C28-Pad2)*%
%TO.C,R39*%
X7600000Y20800000D03*
D18*
%TO.N,/blues-driver/sw_3*%
X12600000Y20800000D03*
%TD*%
D19*
%TO.N,/Zendrive/4.5V*%
%TO.C,C13*%
X-50500000Y17750000D03*
D21*
%TO.N,Earth*%
X-50500000Y20250000D03*
%TD*%
D24*
%TO.N,Net-(C4-Pad2)*%
%TO.C,RV1*%
X-40000000Y-14500000D03*
D25*
X-45000000Y-14500000D03*
%TO.N,Net-(R7-Pad2)*%
X-50000000Y-14500000D03*
%TD*%
D21*
%TO.N,Net-(D5-K)*%
%TO.C,C22*%
X-2500000Y10800000D03*
%TO.N,Net-(Q7A-G1)*%
X2500000Y10800000D03*
%TD*%
%TO.N,Earth*%
%TO.C,C27*%
X23100000Y31000000D03*
%TO.N,Net-(C27-Pad2)*%
X18100000Y31000000D03*
%TD*%
D19*
%TO.N,Net-(D11-K)*%
%TO.C,D11*%
X22500000Y-1540000D03*
D20*
%TO.N,Net-(D11-A)*%
X17500000Y-1540000D03*
%TD*%
D19*
%TO.N,Net-(D10-K)*%
%TO.C,D10*%
X12500000Y10100000D03*
D20*
%TO.N,/blues-driver/sw_1*%
X7500000Y10100000D03*
%TD*%
D21*
%TO.N,Net-(U4B-+)*%
%TO.C,C36*%
X38300000Y7100000D03*
%TO.N,Net-(C36-Pad2)*%
X43300000Y7100000D03*
%TD*%
D17*
%TO.N,Net-(C10-Pad2)*%
%TO.C,R14*%
X-32500000Y10600000D03*
D18*
%TO.N,Net-(R14-Pad2)*%
X-27500000Y10600000D03*
%TD*%
D21*
%TO.N,Net-(SW2A-A)*%
%TO.C,C38*%
X12500000Y-10900000D03*
%TO.N,Net-(C38-Pad2)*%
X7500000Y-10900000D03*
%TD*%
%TO.N,Net-(C16-Pad1)*%
%TO.C,C16*%
X-2500000Y-13600000D03*
%TO.N,Earth*%
X2500000Y-13600000D03*
%TD*%
D19*
%TO.N,/blues-driver/sw_1*%
%TO.C,SW3*%
X-3810000Y18190000D03*
D20*
%TO.N,unconnected-(SW3A-D-Pad2)*%
X-1270000Y18190000D03*
%TO.N,/blues-driver/sw_3*%
X1270000Y18190000D03*
%TO.N,unconnected-(SW3B-D-Pad4)*%
X3810000Y18190000D03*
%TO.N,unconnected-(SW3B-B-Pad5)*%
X3810000Y25810000D03*
%TO.N,/blues-driver/sw_6*%
X1270000Y25810000D03*
%TO.N,unconnected-(SW3A-B-Pad7)*%
X-1270000Y25810000D03*
%TO.N,/blues-driver/sw_8*%
X-3810000Y25810000D03*
%TD*%
D21*
%TO.N,/blues-driver/sw_6*%
%TO.C,C29*%
X18100000Y24466667D03*
%TO.N,Net-(C29-Pad2)*%
X23100000Y24466667D03*
%TD*%
D19*
%TO.N,/blues-driver/9V*%
%TO.C,C42*%
X-21200000Y28150000D03*
D21*
%TO.N,Earth*%
X-21200000Y30650000D03*
%TD*%
D24*
%TO.N,Net-(C34-Pad1)*%
%TO.C,RV8*%
X50000000Y-14500000D03*
D25*
%TO.N,Net-(R44-Pad1)*%
X45000000Y-14500000D03*
%TO.N,Net-(C34-Pad2)*%
X40000000Y-14500000D03*
%TD*%
D17*
%TO.N,Net-(Q5A-G1)*%
%TO.C,R24*%
X-11400000Y-7000000D03*
D18*
%TO.N,Net-(RV5A-4)*%
X-6400000Y-7000000D03*
%TD*%
D21*
%TO.N,Earth*%
%TO.C,C5*%
X-50975000Y-11200000D03*
%TO.N,Net-(C4-Pad1)*%
X-45975000Y-11200000D03*
%TD*%
D17*
%TO.N,/Zendrive/Q1G*%
%TO.C,R15*%
X-27500000Y-7200000D03*
D18*
%TO.N,/Zendrive/9V*%
X-32500000Y-7200000D03*
%TD*%
D17*
%TO.N,Net-(C34-Pad1)*%
%TO.C,R46*%
X47500000Y-11900000D03*
D18*
%TO.N,Net-(C35-Pad2)*%
X52500000Y-11900000D03*
%TD*%
D19*
%TO.N,+9V*%
%TO.C,C2*%
X-21200000Y37550000D03*
D21*
%TO.N,Earth*%
X-21200000Y40050000D03*
%TD*%
D17*
%TO.N,Net-(Q9-E)*%
%TO.C,R56*%
X7500000Y-2012500D03*
D18*
%TO.N,Net-(C38-Pad2)*%
X12500000Y-2012500D03*
%TD*%
D17*
%TO.N,/Zendrive/Q1D*%
%TO.C,R16*%
X-27500000Y-9600000D03*
D18*
%TO.N,/Zendrive/9V*%
X-32500000Y-9600000D03*
%TD*%
D17*
%TO.N,/bluesdriver-send*%
%TO.C,R19*%
X-11400000Y-9400000D03*
D18*
%TO.N,Net-(C15-Pad1)*%
X-6400000Y-9400000D03*
%TD*%
D21*
%TO.N,Net-(C4-Pad1)*%
%TO.C,C4*%
X-50975000Y-7000000D03*
%TO.N,Net-(C4-Pad2)*%
X-45975000Y-7000000D03*
%TD*%
%TO.N,Net-(C20-Pad1)*%
%TO.C,C21*%
X2500000Y7600000D03*
%TO.N,Net-(C21-Pad2)*%
X-2500000Y7600000D03*
%TD*%
D24*
%TO.N,Net-(D3-A)*%
%TO.C,RV2*%
X-40000000Y13500000D03*
D25*
%TO.N,Net-(R10-Pad1)*%
X-45000000Y13500000D03*
%TO.N,Net-(D4-A)*%
X-50000000Y13500000D03*
%TD*%
D24*
%TO.N,Net-(R11-Pad2)*%
%TO.C,RV3*%
X-10000000Y-14500000D03*
D25*
X-15000000Y-14500000D03*
%TO.N,Net-(U2B-+)*%
X-20000000Y-14500000D03*
%TD*%
D17*
%TO.N,Net-(C27-Pad2)*%
%TO.C,R38*%
X7600000Y23100000D03*
D18*
%TO.N,/blues-driver/sw_3*%
X12600000Y23100000D03*
%TD*%
D17*
%TO.N,Earth*%
%TO.C,R29*%
X-6400000Y8550000D03*
D18*
%TO.N,Net-(C21-Pad2)*%
X-11400000Y8550000D03*
%TD*%
D17*
%TO.N,Net-(R10-Pad1)*%
%TO.C,R10*%
X-41000000Y10600000D03*
D18*
%TO.N,Net-(D4-A)*%
X-36000000Y10600000D03*
%TD*%
D17*
%TO.N,Net-(R7-Pad2)*%
%TO.C,R8*%
X-41000000Y-9980000D03*
D18*
%TO.N,Net-(D3-A)*%
X-36000000Y-9980000D03*
%TD*%
D17*
%TO.N,Earth*%
%TO.C,R4*%
X-41000000Y-7860000D03*
D18*
%TO.N,/zendrive_send*%
X-36000000Y-7860000D03*
%TD*%
D17*
%TO.N,Net-(Q9-B)*%
%TO.C,R55*%
X12500000Y-4525000D03*
D18*
%TO.N,/blues-driver/4.5V*%
X7500000Y-4525000D03*
%TD*%
D17*
%TO.N,/blues-driver/vol_out*%
%TO.C,R43*%
X52500000Y-7100000D03*
D18*
%TO.N,Net-(C34-Pad2)*%
X47500000Y-7100000D03*
%TD*%
D17*
%TO.N,Net-(D9-A)*%
%TO.C,R34*%
X7600000Y39000000D03*
D18*
%TO.N,Net-(R34-Pad2)*%
X12600000Y39000000D03*
%TD*%
D19*
%TO.N,/Zendrive/9V*%
%TO.C,C12*%
X-50500000Y29450000D03*
D21*
%TO.N,Earth*%
X-50500000Y31950000D03*
%TD*%
D27*
%TO.N,Earth*%
%TO.C,SW1*%
X-30000000Y-2700000D03*
%TO.N,/Zendrive/Q1G*%
X-30000000Y2000000D03*
%TO.N,unconnected-(SW1-C-Pad3)*%
X-30000000Y6700000D03*
%TD*%
%TO.N,Net-(SW2A-A)*%
%TO.C,SW2*%
X27600000Y-2700000D03*
%TO.N,Net-(D11-K)*%
X27600000Y2000000D03*
%TO.N,Net-(SW2A-C)*%
X27600000Y6700000D03*
%TO.N,unconnected-(SW2B-A-Pad4)*%
X32400000Y-2700000D03*
%TO.N,Net-(D11-A)*%
X32400000Y2000000D03*
%TO.N,Net-(SW2B-C)*%
X32400000Y6700000D03*
%TD*%
D28*
%TO.N,/blues-driver/vol_out*%
X45600000Y-6600000D03*
%TO.N,Net-(D11-K)*%
X36801041Y-398959D03*
%TO.N,Earth*%
X-6400000Y40400000D03*
X-32900000Y-14000000D03*
X16400000Y6300000D03*
X-7300000Y33100000D03*
X-17300000Y20300000D03*
X-16800000Y24100000D03*
X-39500000Y600000D03*
X46500000Y5900000D03*
X-53600000Y23500000D03*
X-13700000Y-6200000D03*
X22300000Y33800000D03*
X12200000Y31200000D03*
X-38800000Y6000000D03*
X-3100000Y-6700000D03*
X21900000Y5400000D03*
X-19835000Y18165000D03*
X-18565000Y18135000D03*
X51900000Y2300000D03*
X-46800000Y-16800000D03*
%TO.N,Net-(D4-A)*%
X-44100000Y500000D03*
%TO.N,Net-(U2B--)*%
X-34000000Y4400000D03*
X-34000000Y1900000D03*
%TO.N,/Zendrive/9V*%
X-21000000Y24100000D03*
X-35100000Y6000000D03*
%TO.N,/blues-driver/sw_8*%
X10100000Y25400000D03*
%TO.N,Net-(D9-A)*%
X10700000Y32800000D03*
X7600000Y36900000D03*
X4875000Y32800000D03*
%TO.N,Net-(C35-Pad2)*%
X45600000Y1200000D03*
%TO.N,/blues-driver/9V*%
X14300000Y32800000D03*
X12900000Y3800000D03*
X16400000Y10100000D03*
X-8600000Y-5100000D03*
X-4100000Y-4900000D03*
X46500000Y9700000D03*
X12200000Y29700000D03*
X-11400000Y-2500000D03*
X10700000Y33800000D03*
%TO.N,/blues-driver/4.5V*%
X31300000Y13000000D03*
X27600000Y13000000D03*
X51900000Y10200000D03*
X50700000Y2300000D03*
X33800000Y13000000D03*
X-2000000Y-16700000D03*
%TO.N,Net-(D3-K)*%
X-48300000Y500000D03*
%TO.N,/V+0*%
X-9400000Y20500000D03*
%TO.N,/V+1*%
X-7300000Y20500000D03*
%TO.N,/Zendrive/Q1D*%
X-14800000Y20100000D03*
X-23600000Y20276000D03*
%TO.N,/Zendrive/Q1G*%
X-23600000Y15325000D03*
%TD*%
D29*
%TO.N,/blues-driver/4.5V*%
X39800000Y-12700000D02*
X18400000Y-12700000D01*
X41000000Y-4600000D02*
X41000000Y-11500000D01*
X41000000Y-11500000D02*
X39800000Y-12700000D01*
X45600000Y-2600000D02*
X44600000Y-3600000D01*
X45600000Y-700000D02*
X45600000Y-2600000D01*
X44600000Y-3600000D02*
X42000000Y-3600000D01*
X42000000Y-3600000D02*
X41000000Y-4600000D01*
%TO.N,/Zendrive/9V*%
X-45800000Y17300000D02*
X-35150000Y17300000D01*
X-21000000Y24100000D02*
X-21000000Y19800000D01*
X-32800000Y100000D02*
X-32800000Y5400000D01*
X-32500000Y-5800000D02*
X-33900000Y-4400000D01*
X-34200000Y9800000D02*
X-33400000Y9000000D01*
X-34200000Y16350000D02*
X-34200000Y9800000D01*
X-48250000Y29450000D02*
X-47200000Y28400000D01*
X-47200000Y28400000D02*
X-47200000Y18700000D01*
X-33400000Y9000000D02*
X-33400000Y6000000D01*
X-50500000Y29450000D02*
X-48250000Y29450000D01*
X-32500000Y-7200000D02*
X-32500000Y-5800000D01*
X-33400000Y6000000D02*
X-35100000Y6000000D01*
X-35150000Y17300000D02*
X-34200000Y16350000D01*
X-47200000Y18700000D02*
X-45800000Y17300000D01*
X-33900000Y-1000000D02*
X-32800000Y100000D01*
X-33900000Y-4400000D02*
X-33900000Y-1000000D01*
X-21000000Y19800000D02*
X-22100000Y18700000D01*
X-32800000Y5400000D02*
X-33400000Y6000000D01*
X-31850000Y18700000D02*
X-34200000Y16350000D01*
X-22100000Y18700000D02*
X-31850000Y18700000D01*
%TO.N,/Zendrive/4.5V*%
X-34400000Y-12500000D02*
X-34400000Y-6300000D01*
X-53600000Y-15600000D02*
X-51100000Y-18100000D01*
X-34960000Y-5740000D02*
X-36000000Y-5740000D01*
X-51100000Y-18100000D02*
X-40000000Y-18100000D01*
X-40000000Y-18100000D02*
X-34400000Y-12500000D01*
X-50500000Y17750000D02*
X-52450000Y17750000D01*
X-52450000Y17750000D02*
X-53600000Y16600000D01*
X-34400000Y-6300000D02*
X-34960000Y-5740000D01*
X-53600000Y16600000D02*
X-53600000Y-15600000D01*
%TO.N,/blues-driver/9V*%
X11551000Y32451000D02*
X11551000Y32447504D01*
X17251000Y3551000D02*
X17251000Y3549000D01*
X-10900000Y-1300000D02*
X-9200000Y-1300000D01*
X13300000Y2700000D02*
X14200000Y2700000D01*
X14200000Y2700000D02*
X16400000Y2700000D01*
X-17750000Y28150000D02*
X-16800000Y29100000D01*
X-4900000Y-4100000D02*
X-4100000Y-4900000D01*
X17251000Y3549000D02*
X18100000Y2700000D01*
X12900000Y3100000D02*
X13300000Y2700000D01*
X-12800000Y32400000D02*
X-8600000Y28200000D01*
X11100000Y30200000D02*
X11600000Y29700000D01*
X5200000Y29700000D02*
X10600000Y29700000D01*
X-9200000Y-1300000D02*
X-8600000Y-1900000D01*
X3900000Y-4900000D02*
X5100000Y-3700000D01*
X17200000Y3500000D02*
X17251000Y3551000D01*
X22300000Y2700000D02*
X24000000Y4400000D01*
X11100000Y31996504D02*
X11100000Y30200000D01*
X14300000Y32800000D02*
X13600000Y32100000D01*
X11600000Y32500000D02*
X11600000Y33600000D01*
X-15400000Y32400000D02*
X-12800000Y32400000D01*
X-12600000Y13000000D02*
X-16500000Y9100000D01*
X-8100000Y-4100000D02*
X-4900000Y-4100000D01*
X12900000Y3100000D02*
X12900000Y3800000D01*
X11400000Y33800000D02*
X10700000Y33800000D01*
X-16500000Y-100000D02*
X-15300000Y-1300000D01*
X16400000Y2700000D02*
X17200000Y3500000D01*
X-8600000Y28200000D02*
X3700000Y28200000D01*
X-4100000Y-4900000D02*
X3900000Y-4900000D01*
X45500000Y8700000D02*
X46500000Y9700000D01*
X5100000Y1500000D02*
X6300000Y2700000D01*
X3700000Y28200000D02*
X5200000Y29700000D01*
X-11900000Y-1300000D02*
X-11400000Y-1800000D01*
X12500000Y2700000D02*
X12900000Y3100000D01*
X-8600000Y-1900000D02*
X-8600000Y-3600000D01*
X24900000Y8700000D02*
X45500000Y8700000D01*
X-15300000Y-1300000D02*
X-11900000Y-1300000D01*
X24000000Y4400000D02*
X24000000Y7800000D01*
X10600000Y29700000D02*
X11100000Y30200000D01*
X11600000Y33600000D02*
X11400000Y33800000D01*
X5100000Y-3700000D02*
X5100000Y1500000D01*
X17251000Y9249000D02*
X16400000Y10100000D01*
X-8600000Y-5100000D02*
X-8600000Y-4600000D01*
X-8600000Y-4600000D02*
X-8100000Y-4100000D01*
X-11400000Y-1800000D02*
X-10900000Y-1300000D01*
X11551000Y32447504D02*
X11100000Y31996504D01*
X11600000Y32500000D02*
X11551000Y32451000D01*
X11600000Y29700000D02*
X12200000Y29700000D01*
X-21200000Y28150000D02*
X-17750000Y28150000D01*
X-16800000Y29100000D02*
X-16800000Y31000000D01*
X-11400000Y-1800000D02*
X-11400000Y-2500000D01*
X18100000Y2700000D02*
X22300000Y2700000D01*
X-12600000Y23000000D02*
X-12600000Y13000000D01*
X-8600000Y-3600000D02*
X-8100000Y-4100000D01*
X17251000Y3551000D02*
X17251000Y9249000D01*
X-16800000Y31000000D02*
X-15400000Y32400000D01*
X13600000Y32100000D02*
X12000000Y32100000D01*
X6300000Y2700000D02*
X12500000Y2700000D01*
X-16500000Y9100000D02*
X-16500000Y-100000D01*
X12000000Y32100000D02*
X11600000Y32500000D01*
X-17750000Y28150000D02*
X-12600000Y23000000D01*
X24000000Y7800000D02*
X24900000Y8700000D01*
%TO.N,/blues-driver/4.5V*%
X17400000Y-13700000D02*
X18400000Y-12700000D01*
X-8300000Y15800000D02*
X-7800000Y15300000D01*
X33500000Y13800000D02*
X31700000Y13800000D01*
X-7800000Y11800000D02*
X-8600000Y11000000D01*
X28100000Y13800000D02*
X30900000Y13800000D01*
X25300000Y15600000D02*
X27600000Y13300000D01*
X6100000Y-15600000D02*
X7200000Y-16700000D01*
X50400000Y11300000D02*
X51500000Y11300000D01*
X44966667Y-66667D02*
X43300000Y-66667D01*
X50000000Y11700000D02*
X50100000Y11600000D01*
X30900000Y13800000D02*
X31300000Y13400000D01*
X17375000Y-10900000D02*
X17375000Y-11675000D01*
X45600000Y-700000D02*
X46200000Y-100000D01*
X6100000Y-5925000D02*
X7500000Y-4525000D01*
X33800000Y13500000D02*
X34100000Y13800000D01*
X50100000Y11600000D02*
X50400000Y11300000D01*
X51900000Y10900000D02*
X51900000Y10200000D01*
X27600000Y13000000D02*
X27600000Y13300000D01*
X5000000Y-16700000D02*
X6100000Y-15600000D01*
X17375000Y-11675000D02*
X18400000Y-12700000D01*
X-7800000Y15300000D02*
X-7500000Y15600000D01*
X33800000Y13000000D02*
X33800000Y13500000D01*
X46200000Y-100000D02*
X50200000Y-100000D01*
X49600000Y11300000D02*
X50000000Y11700000D01*
X6100000Y-15600000D02*
X6100000Y-5925000D01*
X37300000Y13800000D02*
X39500000Y11600000D01*
X52200000Y11200000D02*
X51900000Y10900000D01*
X31700000Y13800000D02*
X31300000Y13400000D01*
X27600000Y13300000D02*
X28100000Y13800000D01*
X-14300000Y28250000D02*
X-11000000Y24950000D01*
X7200000Y-16700000D02*
X16400000Y-16700000D01*
X-11000000Y24950000D02*
X-11000000Y17000000D01*
X17400000Y-15700000D02*
X17400000Y-13700000D01*
X-8600000Y11000000D02*
X-11400000Y11000000D01*
X-9800000Y15800000D02*
X-8300000Y15800000D01*
X39500000Y11600000D02*
X44400000Y11600000D01*
X-7800000Y15300000D02*
X-7800000Y11800000D01*
X53100000Y11200000D02*
X52200000Y11200000D01*
X53800000Y10500000D02*
X53100000Y11200000D01*
X34100000Y13800000D02*
X37300000Y13800000D01*
X31300000Y13400000D02*
X31300000Y13000000D01*
X-11000000Y17000000D02*
X-9800000Y15800000D01*
X53200000Y-100000D02*
X53800000Y500000D01*
X50700000Y400000D02*
X51200000Y-100000D01*
X50000000Y13500000D02*
X50000000Y11700000D01*
X53800000Y500000D02*
X53800000Y10500000D01*
X51500000Y11300000D02*
X51900000Y10900000D01*
X-2000000Y-16700000D02*
X5000000Y-16700000D01*
X33800000Y13500000D02*
X33500000Y13800000D01*
X50700000Y400000D02*
X50700000Y2300000D01*
X50200000Y-100000D02*
X50700000Y400000D01*
X45600000Y-700000D02*
X44966667Y-66667D01*
X51200000Y-100000D02*
X53200000Y-100000D01*
X16400000Y-16700000D02*
X17400000Y-15700000D01*
X44400000Y11600000D02*
X44700000Y11300000D01*
X-7500000Y15600000D02*
X25300000Y15600000D01*
X44700000Y11300000D02*
X49600000Y11300000D01*
%TD*%
M02*
