%TF.GenerationSoftware,KiCad,Pcbnew,9.0.7*%
%TF.CreationDate,2026-04-13T23:40:11-02:30*%
%TF.ProjectId,riley-penny-custom,72696c65-792d-4706-956e-6e792d637573,rev?*%
%TF.SameCoordinates,Original*%
%TF.FileFunction,Soldermask,Top*%
%TF.FilePolarity,Negative*%
%FSLAX46Y46*%
G04 Gerber Fmt 4.6, Leading zero omitted, Abs format (unit mm)*
G04 Created by KiCad (PCBNEW 9.0.7) date 2026-04-13 23:40:11*
%MOMM*%
%LPD*%
G01*
G04 APERTURE LIST*
G04 Aperture macros list*
%AMRoundRect*
0 Rectangle with rounded corners*
0 $1 Rounding radius*
0 $2 $3 $4 $5 $6 $7 $8 $9 X,Y pos of 4 corners*
0 Add a 4 corners polygon primitive as box body*
4,1,4,$2,$3,$4,$5,$6,$7,$8,$9,$2,$3,0*
0 Add four circle primitives for the rounded corners*
1,1,$1+$1,$2,$3*
1,1,$1+$1,$4,$5*
1,1,$1+$1,$6,$7*
1,1,$1+$1,$8,$9*
0 Add four rect primitives between the rounded corners*
20,1,$1+$1,$2,$3,$4,$5,0*
20,1,$1+$1,$4,$5,$6,$7,0*
20,1,$1+$1,$6,$7,$8,$9,0*
20,1,$1+$1,$8,$9,$2,$3,0*%
G04 Aperture macros list end*
%ADD10O,4.000000X1.500000*%
%ADD11O,1.500000X4.000000*%
%ADD12C,2.540000*%
%ADD13O,3.000000X1.400000*%
%ADD14O,1.400000X3.000000*%
%ADD15C,1.400000*%
%ADD16O,1.400000X1.400000*%
%ADD17RoundRect,0.250000X0.325000X0.450000X-0.325000X0.450000X-0.325000X-0.450000X0.325000X-0.450000X0*%
%ADD18RoundRect,0.237500X-0.300000X-0.237500X0.300000X-0.237500X0.300000X0.237500X-0.300000X0.237500X0*%
%ADD19R,1.600000X1.600000*%
%ADD20O,1.600000X1.600000*%
%ADD21C,1.600000*%
%ADD22R,1.700000X1.700000*%
%ADD23O,1.700000X1.700000*%
%ADD24RoundRect,0.162500X-0.617500X-0.162500X0.617500X-0.162500X0.617500X0.162500X-0.617500X0.162500X0*%
%ADD25RoundRect,0.250000X-0.450000X0.350000X-0.450000X-0.350000X0.450000X-0.350000X0.450000X0.350000X0*%
%ADD26RoundRect,0.250000X0.450000X-0.350000X0.450000X0.350000X-0.450000X0.350000X-0.450000X-0.350000X0*%
%ADD27RoundRect,0.200000X-0.750000X-0.200000X0.750000X-0.200000X0.750000X0.200000X-0.750000X0.200000X0*%
%ADD28RoundRect,0.237500X0.300000X0.237500X-0.300000X0.237500X-0.300000X-0.237500X0.300000X-0.237500X0*%
%ADD29RoundRect,0.237500X0.237500X-0.250000X0.237500X0.250000X-0.237500X0.250000X-0.237500X-0.250000X0*%
%ADD30RoundRect,0.237500X0.250000X0.237500X-0.250000X0.237500X-0.250000X-0.237500X0.250000X-0.237500X0*%
%ADD31RoundRect,0.237500X-0.237500X0.300000X-0.237500X-0.300000X0.237500X-0.300000X0.237500X0.300000X0*%
%ADD32R,1.200000X1.200000*%
%ADD33C,1.200000*%
%ADD34R,2.000000X2.000000*%
%ADD35C,2.000000*%
%ADD36C,1.500000*%
%ADD37RoundRect,0.150000X0.150000X-0.825000X0.150000X0.825000X-0.150000X0.825000X-0.150000X-0.825000X0*%
%ADD38RoundRect,0.150000X-0.825000X-0.150000X0.825000X-0.150000X0.825000X0.150000X-0.825000X0.150000X0*%
%ADD39RoundRect,0.250000X0.350000X0.450000X-0.350000X0.450000X-0.350000X-0.450000X0.350000X-0.450000X0*%
%ADD40RoundRect,0.250000X-0.350000X-0.450000X0.350000X-0.450000X0.350000X0.450000X-0.350000X0.450000X0*%
%ADD41RoundRect,0.250000X-0.337500X-0.475000X0.337500X-0.475000X0.337500X0.475000X-0.337500X0.475000X0*%
%ADD42RoundRect,0.237500X-0.250000X-0.237500X0.250000X-0.237500X0.250000X0.237500X-0.250000X0.237500X0*%
%ADD43RoundRect,0.250000X-0.250000X-0.250000X0.250000X-0.250000X0.250000X0.250000X-0.250000X0.250000X0*%
%ADD44O,3.800000X2.400000*%
G04 APERTURE END LIST*
D10*
%TO.C,J1*%
X0Y29800000D03*
X0Y35800000D03*
D11*
X-4700000Y32800000D03*
%TD*%
D12*
%TO.C,J2*%
X-46250000Y23650000D03*
X-46250000Y30000000D03*
X-46250000Y36350000D03*
X-29750000Y23650000D03*
X-29750000Y30000000D03*
X-29750000Y36350000D03*
%TD*%
%TO.C,J3*%
X29750000Y23650000D03*
X29750000Y30000000D03*
X29750000Y36350000D03*
X46250000Y23650000D03*
X46250000Y30000000D03*
X46250000Y36350000D03*
%TD*%
D13*
%TO.C,G1*%
X49700000Y34500000D03*
D14*
X53000000Y30000000D03*
D13*
X49700000Y25500000D03*
%TD*%
D15*
%TO.C,R11*%
X-41000000Y-3620000D03*
D16*
X-36000000Y-3620000D03*
%TD*%
D15*
%TO.C,R42*%
X52500000Y-4700000D03*
D16*
X47500000Y-4700000D03*
%TD*%
D17*
%TO.C,FB1*%
X-13275000Y34200000D03*
X-15325000Y34200000D03*
%TD*%
D18*
%TO.C,C25*%
X13037500Y36500000D03*
X14762500Y36500000D03*
%TD*%
D15*
%TO.C,R57*%
X22375000Y-6540000D03*
D16*
X17375000Y-6540000D03*
%TD*%
D19*
%TO.C,D8*%
X-14000000Y1150000D03*
D20*
X-19000000Y1150000D03*
%TD*%
D19*
%TO.C,D5*%
X-14000000Y8500000D03*
D20*
X-19000000Y8500000D03*
%TD*%
D19*
%TO.C,D12*%
X22500000Y900000D03*
D20*
X17500000Y900000D03*
%TD*%
D21*
%TO.C,C28*%
X23100000Y27733333D03*
X18100000Y27733333D03*
%TD*%
D15*
%TO.C,R48*%
X43300000Y-66667D03*
D16*
X38300000Y-66667D03*
%TD*%
D21*
%TO.C,C3*%
X-50975000Y-2800000D03*
X-45975000Y-2800000D03*
%TD*%
%TO.C,C20*%
X2500000Y4400000D03*
X-2500000Y4400000D03*
%TD*%
D22*
%TO.C,J5*%
X23650000Y-17500000D03*
D23*
X26190000Y-17500000D03*
X28730000Y-17500000D03*
X31270000Y-17500000D03*
X33810000Y-17500000D03*
X36350000Y-17500000D03*
%TD*%
D19*
%TO.C,D6*%
X-14000000Y6050000D03*
D20*
X-19000000Y6050000D03*
%TD*%
D24*
%TO.C,Q7*%
X6850000Y34750000D03*
X6850000Y33800000D03*
X6850000Y32850000D03*
X9550000Y32850000D03*
X9550000Y33800000D03*
X9550000Y34750000D03*
%TD*%
D15*
%TO.C,R27*%
X-6400000Y3650000D03*
D16*
X-11400000Y3650000D03*
%TD*%
D21*
%TO.C,C23*%
X18100000Y40300000D03*
X23100000Y40300000D03*
%TD*%
D25*
%TO.C,R51*%
X33800000Y12000000D03*
X33800000Y10000000D03*
%TD*%
D19*
%TO.C,C1*%
X-14300000Y37550000D03*
D21*
X-14300000Y40050000D03*
%TD*%
D15*
%TO.C,R33*%
X12600000Y41200000D03*
D16*
X7600000Y41200000D03*
%TD*%
D21*
%TO.C,C10*%
X-24000000Y-2800000D03*
X-19000000Y-2800000D03*
%TD*%
D15*
%TO.C,R12*%
X-36000000Y-1500000D03*
D16*
X-41000000Y-1500000D03*
%TD*%
D26*
%TO.C,R2*%
X-9400000Y21500000D03*
X-9400000Y23500000D03*
%TD*%
D15*
%TO.C,R50*%
X43300000Y4400000D03*
D16*
X38300000Y4400000D03*
%TD*%
D15*
%TO.C,R13*%
X-27500000Y12800000D03*
D16*
X-32500000Y12800000D03*
%TD*%
D27*
%TO.C,Q3*%
X-47100000Y2350000D03*
X-47100000Y450000D03*
X-44100000Y1400000D03*
%TD*%
%TO.C,Q1*%
X-9400000Y38250000D03*
X-9400000Y36350000D03*
X-6400000Y37300000D03*
%TD*%
%TO.C,Q4*%
X-31500000Y-12050000D03*
X-31500000Y-13950000D03*
X-28500000Y-13000000D03*
%TD*%
D15*
%TO.C,R23*%
X-6400000Y-11800000D03*
D16*
X-11400000Y-11800000D03*
%TD*%
D28*
%TO.C,C35*%
X49562500Y400000D03*
X47837500Y400000D03*
%TD*%
D19*
%TO.C,D2*%
X-46100000Y8300000D03*
D20*
X-51100000Y8300000D03*
%TD*%
D29*
%TO.C,R22*%
X-13700000Y-5312500D03*
X-13700000Y-3487500D03*
%TD*%
D21*
%TO.C,C7*%
X-24000000Y-11200000D03*
X-19000000Y-11200000D03*
%TD*%
D18*
%TO.C,C24*%
X8737500Y36500000D03*
X10462500Y36500000D03*
%TD*%
D30*
%TO.C,R35*%
X21612500Y33800000D03*
X19787500Y33800000D03*
%TD*%
D15*
%TO.C,R47*%
X43300000Y2166667D03*
D16*
X38300000Y2166667D03*
%TD*%
D21*
%TO.C,C33*%
X43300000Y-8200000D03*
X38300000Y-8200000D03*
%TD*%
D25*
%TO.C,R61*%
X-7300000Y32100000D03*
X-7300000Y30100000D03*
%TD*%
D21*
%TO.C,C40*%
X7500000Y-7500000D03*
X12500000Y-7500000D03*
%TD*%
D15*
%TO.C,R53*%
X17375000Y-10900000D03*
D16*
X22375000Y-10900000D03*
%TD*%
D15*
%TO.C,R28*%
X-11400000Y6100000D03*
D16*
X-6400000Y6100000D03*
%TD*%
D31*
%TO.C,C44*%
X46500000Y8662500D03*
X46500000Y6937500D03*
%TD*%
D32*
%TO.C,C32*%
X33300000Y-7050000D03*
D33*
X33300000Y-8550000D03*
%TD*%
D25*
%TO.C,R52*%
X27600000Y12000000D03*
X27600000Y10000000D03*
%TD*%
D30*
%TO.C,R32*%
X11412500Y31200000D03*
X9587500Y31200000D03*
%TD*%
%TO.C,R21*%
X-5987500Y-5100000D03*
X-7812500Y-5100000D03*
%TD*%
D34*
%TO.C,RV6*%
X50000000Y13500000D03*
D35*
X45000000Y13500000D03*
X40000000Y13500000D03*
%TD*%
D15*
%TO.C,R54*%
X43300000Y-2300000D03*
D16*
X38300000Y-2300000D03*
%TD*%
D18*
%TO.C,C17*%
X-5562500Y-1100000D03*
X-3837500Y-1100000D03*
%TD*%
D36*
%TO.C,C19*%
X1250000Y1400000D03*
X-1250000Y1400000D03*
%TD*%
D37*
%TO.C,U3*%
X48095000Y3725000D03*
X49365000Y3725000D03*
X50635000Y3725000D03*
X51905000Y3725000D03*
X51905000Y8675000D03*
X50635000Y8675000D03*
X49365000Y8675000D03*
X48095000Y8675000D03*
%TD*%
D21*
%TO.C,C37*%
X43300000Y10200000D03*
X38300000Y10200000D03*
%TD*%
D19*
%TO.C,D7*%
X-14000000Y3600000D03*
D20*
X-19000000Y3600000D03*
%TD*%
D15*
%TO.C,R37*%
X12600000Y25400000D03*
D16*
X7600000Y25400000D03*
%TD*%
D21*
%TO.C,C15*%
X-2500000Y-9800000D03*
X2500000Y-9800000D03*
%TD*%
D34*
%TO.C,RV7*%
X20000000Y-14500000D03*
D35*
X15000000Y-14500000D03*
X10000000Y-14500000D03*
%TD*%
D34*
%TO.C,RV5*%
X20000000Y13300000D03*
D35*
X15000000Y13300000D03*
X10000000Y13300000D03*
D34*
X20000000Y18300000D03*
D35*
X15000000Y18300000D03*
X10000000Y18300000D03*
%TD*%
D24*
%TO.C,Q5*%
X-10150000Y-1550000D03*
X-10150000Y-2500000D03*
X-10150000Y-3450000D03*
X-7450000Y-3450000D03*
X-7450000Y-2500000D03*
X-7450000Y-1550000D03*
%TD*%
D21*
%TO.C,C39*%
X43300000Y-5000000D03*
X38300000Y-5000000D03*
%TD*%
D15*
%TO.C,R9*%
X-41000000Y8300000D03*
D16*
X-36000000Y8300000D03*
%TD*%
D19*
%TO.C,C43*%
X-14300000Y28250000D03*
D21*
X-14300000Y30750000D03*
%TD*%
D38*
%TO.C,U2*%
X-40975000Y4405000D03*
X-40975000Y3135000D03*
X-40975000Y1865000D03*
X-40975000Y595000D03*
X-36025000Y595000D03*
X-36025000Y1865000D03*
X-36025000Y3135000D03*
X-36025000Y4405000D03*
%TD*%
D15*
%TO.C,R36*%
X7600000Y27700000D03*
D16*
X12600000Y27700000D03*
%TD*%
D15*
%TO.C,R45*%
X52500000Y-9500000D03*
D16*
X47500000Y-9500000D03*
%TD*%
D21*
%TO.C,C8*%
X-19000000Y-7000000D03*
X-24000000Y-7000000D03*
%TD*%
D27*
%TO.C,Q9*%
X8500000Y4750000D03*
X8500000Y2850000D03*
X11500000Y3800000D03*
%TD*%
D39*
%TO.C,R17*%
X-52500000Y25500000D03*
X-50500000Y25500000D03*
%TD*%
D37*
%TO.C,U4*%
X18095000Y4025000D03*
X19365000Y4025000D03*
X20635000Y4025000D03*
X21905000Y4025000D03*
X21905000Y8975000D03*
X20635000Y8975000D03*
X19365000Y8975000D03*
X18095000Y8975000D03*
%TD*%
D19*
%TO.C,D4*%
X-46100000Y10600000D03*
D20*
X-51100000Y10600000D03*
%TD*%
D21*
%TO.C,C26*%
X18100000Y36700000D03*
X23100000Y36700000D03*
%TD*%
D15*
%TO.C,R30*%
X-11400000Y11000000D03*
D16*
X-6400000Y11000000D03*
%TD*%
D37*
%TO.C,U1*%
X-23645000Y16755000D03*
X-22375000Y16755000D03*
X-21105000Y16755000D03*
X-19835000Y16755000D03*
X-18565000Y16755000D03*
X-17295000Y16755000D03*
X-16025000Y16755000D03*
X-14755000Y16755000D03*
X-14755000Y21705000D03*
X-16025000Y21705000D03*
X-17295000Y21705000D03*
X-18565000Y21705000D03*
X-19835000Y21705000D03*
X-21105000Y21705000D03*
X-22375000Y21705000D03*
X-23645000Y21705000D03*
%TD*%
D18*
%TO.C,C6*%
X-46462500Y4200000D03*
X-44737500Y4200000D03*
%TD*%
D22*
%TO.C,J4*%
X-36350000Y-17500000D03*
D23*
X-33810000Y-17500000D03*
X-31270000Y-17500000D03*
X-28730000Y-17500000D03*
X-26190000Y-17500000D03*
X-23650000Y-17500000D03*
%TD*%
D15*
%TO.C,R58*%
X12500000Y500000D03*
D16*
X7500000Y500000D03*
%TD*%
D27*
%TO.C,Q2*%
X-52600000Y2350000D03*
X-52600000Y450000D03*
X-49600000Y1400000D03*
%TD*%
D19*
%TO.C,D3*%
X-46100000Y6000000D03*
D20*
X-51100000Y6000000D03*
%TD*%
D15*
%TO.C,R7*%
X-36000000Y-12100000D03*
D16*
X-41000000Y-12100000D03*
%TD*%
D21*
%TO.C,C30*%
X18100000Y21200000D03*
X23100000Y21200000D03*
%TD*%
D28*
%TO.C,C14*%
X-36037500Y6000000D03*
X-37762500Y6000000D03*
%TD*%
D15*
%TO.C,R26*%
X-6400000Y1200000D03*
D16*
X-11400000Y1200000D03*
%TD*%
D40*
%TO.C,R20*%
X-1000000Y-16700000D03*
X1000000Y-16700000D03*
%TD*%
D15*
%TO.C,R44*%
X52500000Y-2300000D03*
D16*
X47500000Y-2300000D03*
%TD*%
D15*
%TO.C,R40*%
X50200000Y23100000D03*
D16*
X50200000Y18100000D03*
%TD*%
D15*
%TO.C,R41*%
X52600000Y18100000D03*
D16*
X52600000Y23100000D03*
%TD*%
D41*
%TO.C,C11*%
X-19837500Y24100000D03*
X-17762500Y24100000D03*
%TD*%
D15*
%TO.C,R5*%
X-36000000Y-5740000D03*
D16*
X-41000000Y-5740000D03*
%TD*%
D15*
%TO.C,R59*%
X22375000Y-8720000D03*
D16*
X17375000Y-8720000D03*
%TD*%
D19*
%TO.C,D9*%
X12500000Y7400000D03*
D20*
X7500000Y7400000D03*
%TD*%
D34*
%TO.C,RV4*%
X-10000000Y13500000D03*
D35*
X-15000000Y13500000D03*
X-20000000Y13500000D03*
%TD*%
D21*
%TO.C,C34*%
X43300000Y-11400000D03*
X38300000Y-11400000D03*
%TD*%
D15*
%TO.C,R39*%
X7600000Y20800000D03*
D16*
X12600000Y20800000D03*
%TD*%
D19*
%TO.C,C13*%
X-51500000Y17750000D03*
D21*
X-51500000Y20250000D03*
%TD*%
D26*
%TO.C,R49*%
X31300000Y10000000D03*
X31300000Y12000000D03*
%TD*%
D34*
%TO.C,RV1*%
X-40000000Y-14500000D03*
D35*
X-45000000Y-14500000D03*
X-50000000Y-14500000D03*
%TD*%
D21*
%TO.C,C22*%
X-2500000Y10800000D03*
X2500000Y10800000D03*
%TD*%
%TO.C,C27*%
X23100000Y31000000D03*
X18100000Y31000000D03*
%TD*%
D19*
%TO.C,D11*%
X22500000Y-1540000D03*
D20*
X17500000Y-1540000D03*
%TD*%
D19*
%TO.C,D10*%
X12500000Y10100000D03*
D20*
X7500000Y10100000D03*
%TD*%
D28*
%TO.C,C31*%
X51362500Y16300000D03*
X49637500Y16300000D03*
%TD*%
D21*
%TO.C,C36*%
X38300000Y7100000D03*
X43300000Y7100000D03*
%TD*%
D15*
%TO.C,R14*%
X-32500000Y10600000D03*
D16*
X-27500000Y10600000D03*
%TD*%
D17*
%TO.C,FB3*%
X-20175000Y34200000D03*
X-22225000Y34200000D03*
%TD*%
D21*
%TO.C,C38*%
X12500000Y-10900000D03*
X7500000Y-10900000D03*
%TD*%
%TO.C,C16*%
X-2500000Y-13600000D03*
X2500000Y-13600000D03*
%TD*%
D19*
%TO.C,SW3*%
X-3810000Y18190000D03*
D20*
X-1270000Y18190000D03*
X1270000Y18190000D03*
X3810000Y18190000D03*
X3810000Y25810000D03*
X1270000Y25810000D03*
X-1270000Y25810000D03*
X-3810000Y25810000D03*
%TD*%
D21*
%TO.C,C29*%
X18100000Y24466667D03*
X23100000Y24466667D03*
%TD*%
D19*
%TO.C,C42*%
X-21200000Y28150000D03*
D21*
X-21200000Y30650000D03*
%TD*%
D34*
%TO.C,RV8*%
X50000000Y-14500000D03*
D35*
X45000000Y-14500000D03*
X40000000Y-14500000D03*
%TD*%
D27*
%TO.C,Q6*%
X-2800000Y-3050000D03*
X-2800000Y-4950000D03*
X200000Y-4000000D03*
%TD*%
D15*
%TO.C,R24*%
X-11400000Y-7000000D03*
D16*
X-6400000Y-7000000D03*
%TD*%
D39*
%TO.C,R6*%
X-47900000Y-16800000D03*
X-49900000Y-16800000D03*
%TD*%
D32*
%TO.C,C41*%
X26700000Y-7030000D03*
D33*
X26700000Y-8530000D03*
%TD*%
D21*
%TO.C,C5*%
X-50975000Y-11200000D03*
X-45975000Y-11200000D03*
%TD*%
D15*
%TO.C,R15*%
X-27500000Y-7200000D03*
D16*
X-32500000Y-7200000D03*
%TD*%
D15*
%TO.C,R46*%
X47500000Y-11900000D03*
D16*
X52500000Y-11900000D03*
%TD*%
D17*
%TO.C,FB2*%
X-50875000Y35300000D03*
X-52925000Y35300000D03*
%TD*%
D19*
%TO.C,C2*%
X-21200000Y37550000D03*
D21*
X-21200000Y40050000D03*
%TD*%
D15*
%TO.C,R56*%
X7500000Y-2012500D03*
D16*
X12500000Y-2012500D03*
%TD*%
D15*
%TO.C,R16*%
X-27500000Y-9600000D03*
D16*
X-32500000Y-9600000D03*
%TD*%
D42*
%TO.C,R31*%
X9587500Y29700000D03*
X11412500Y29700000D03*
%TD*%
D26*
%TO.C,R3*%
X-7300000Y21500000D03*
X-7300000Y23500000D03*
%TD*%
D31*
%TO.C,C45*%
X16400000Y8962500D03*
X16400000Y7237500D03*
%TD*%
D15*
%TO.C,R19*%
X-11400000Y-9400000D03*
D16*
X-6400000Y-9400000D03*
%TD*%
D21*
%TO.C,C4*%
X-50975000Y-7000000D03*
X-45975000Y-7000000D03*
%TD*%
%TO.C,C21*%
X2500000Y7600000D03*
X-2500000Y7600000D03*
%TD*%
D34*
%TO.C,RV2*%
X-40000000Y13500000D03*
D35*
X-45000000Y13500000D03*
X-50000000Y13500000D03*
%TD*%
D34*
%TO.C,RV3*%
X-10000000Y-14500000D03*
D35*
X-15000000Y-14500000D03*
X-20000000Y-14500000D03*
%TD*%
D15*
%TO.C,R38*%
X7600000Y23100000D03*
D16*
X12600000Y23100000D03*
%TD*%
D15*
%TO.C,R29*%
X-6400000Y8550000D03*
D16*
X-11400000Y8550000D03*
%TD*%
D15*
%TO.C,R10*%
X-41000000Y10600000D03*
D16*
X-36000000Y10600000D03*
%TD*%
D42*
%TO.C,R25*%
X-2212500Y-6700000D03*
X-387500Y-6700000D03*
%TD*%
D18*
%TO.C,C18*%
X-1462500Y-1100000D03*
X262500Y-1100000D03*
%TD*%
D15*
%TO.C,R8*%
X-41000000Y-9980000D03*
D16*
X-36000000Y-9980000D03*
%TD*%
D40*
%TO.C,R18*%
X-52500000Y23500000D03*
X-50500000Y23500000D03*
%TD*%
D27*
%TO.C,Q8*%
X13000000Y34750000D03*
X13000000Y32850000D03*
X16000000Y33800000D03*
%TD*%
D15*
%TO.C,R4*%
X-41000000Y-7860000D03*
D16*
X-36000000Y-7860000D03*
%TD*%
D15*
%TO.C,R55*%
X12500000Y-4525000D03*
D16*
X7500000Y-4525000D03*
%TD*%
D39*
%TO.C,R1*%
X-7400000Y40400000D03*
X-9400000Y40400000D03*
%TD*%
D15*
%TO.C,R43*%
X52500000Y-7100000D03*
D16*
X47500000Y-7100000D03*
%TD*%
D28*
%TO.C,C9*%
X-29137500Y14700000D03*
X-30862500Y14700000D03*
%TD*%
D15*
%TO.C,R34*%
X7600000Y39000000D03*
D16*
X12600000Y39000000D03*
%TD*%
D26*
%TO.C,R60*%
X-9400000Y30100000D03*
X-9400000Y32100000D03*
%TD*%
D19*
%TO.C,C12*%
X-51500000Y29450000D03*
D21*
X-51500000Y31950000D03*
%TD*%
D43*
%TO.C,D1*%
X-9350000Y34500000D03*
X-6850000Y34500000D03*
%TD*%
D44*
%TO.C,SW1*%
X-30000000Y-2700000D03*
X-30000000Y2000000D03*
X-30000000Y6700000D03*
%TD*%
%TO.C,SW2*%
X27600000Y-2700000D03*
X27600000Y2000000D03*
X27600000Y6700000D03*
X32400000Y-2700000D03*
X32400000Y2000000D03*
X32400000Y6700000D03*
%TD*%
M02*
