%TF.GenerationSoftware,KiCad,Pcbnew,9.0.7*%
%TF.CreationDate,2026-04-13T23:40:11-02:30*%
%TF.ProjectId,riley-penny-custom,72696c65-792d-4706-956e-6e792d637573,rev?*%
%TF.SameCoordinates,Original*%
%TF.FileFunction,Soldermask,Bot*%
%TF.FilePolarity,Negative*%
%FSLAX46Y46*%
G04 Gerber Fmt 4.6, Leading zero omitted, Abs format (unit mm)*
G04 Created by KiCad (PCBNEW 9.0.7) date 2026-04-13 23:40:11*
%MOMM*%
%LPD*%
G01*
G04 APERTURE LIST*
%ADD10O,4.000000X1.500000*%
%ADD11O,1.500000X4.000000*%
%ADD12C,2.540000*%
%ADD13O,3.000000X1.400000*%
%ADD14O,1.400000X3.000000*%
%ADD15C,1.400000*%
%ADD16O,1.400000X1.400000*%
%ADD17R,1.600000X1.600000*%
%ADD18O,1.600000X1.600000*%
%ADD19C,1.600000*%
%ADD20R,1.700000X1.700000*%
%ADD21O,1.700000X1.700000*%
%ADD22R,1.200000X1.200000*%
%ADD23C,1.200000*%
%ADD24R,2.000000X2.000000*%
%ADD25C,2.000000*%
%ADD26C,1.500000*%
%ADD27O,3.800000X2.400000*%
G04 APERTURE END LIST*
D10*
%TO.C,J1*%
X0Y29800000D03*
X0Y35800000D03*
D11*
X-4700000Y32800000D03*
%TD*%
D12*
%TO.C,J2*%
X-46250000Y23650000D03*
X-46250000Y30000000D03*
X-46250000Y36350000D03*
X-29750000Y23650000D03*
X-29750000Y30000000D03*
X-29750000Y36350000D03*
%TD*%
%TO.C,J3*%
X29750000Y23650000D03*
X29750000Y30000000D03*
X29750000Y36350000D03*
X46250000Y23650000D03*
X46250000Y30000000D03*
X46250000Y36350000D03*
%TD*%
D13*
%TO.C,G1*%
X49700000Y34500000D03*
D14*
X53000000Y30000000D03*
D13*
X49700000Y25500000D03*
%TD*%
D15*
%TO.C,R11*%
X-41000000Y-3620000D03*
D16*
X-36000000Y-3620000D03*
%TD*%
D15*
%TO.C,R42*%
X52500000Y-4700000D03*
D16*
X47500000Y-4700000D03*
%TD*%
D15*
%TO.C,R57*%
X22375000Y-6540000D03*
D16*
X17375000Y-6540000D03*
%TD*%
D17*
%TO.C,D8*%
X-14000000Y1150000D03*
D18*
X-19000000Y1150000D03*
%TD*%
D17*
%TO.C,D5*%
X-14000000Y8500000D03*
D18*
X-19000000Y8500000D03*
%TD*%
D17*
%TO.C,D12*%
X22500000Y900000D03*
D18*
X17500000Y900000D03*
%TD*%
D19*
%TO.C,C28*%
X23100000Y27733333D03*
X18100000Y27733333D03*
%TD*%
D15*
%TO.C,R48*%
X43300000Y-66667D03*
D16*
X38300000Y-66667D03*
%TD*%
D19*
%TO.C,C3*%
X-50975000Y-2800000D03*
X-45975000Y-2800000D03*
%TD*%
%TO.C,C20*%
X2500000Y4400000D03*
X-2500000Y4400000D03*
%TD*%
D20*
%TO.C,J5*%
X23650000Y-17500000D03*
D21*
X26190000Y-17500000D03*
X28730000Y-17500000D03*
X31270000Y-17500000D03*
X33810000Y-17500000D03*
X36350000Y-17500000D03*
%TD*%
D17*
%TO.C,D6*%
X-14000000Y6050000D03*
D18*
X-19000000Y6050000D03*
%TD*%
D15*
%TO.C,R27*%
X-6400000Y3650000D03*
D16*
X-11400000Y3650000D03*
%TD*%
D19*
%TO.C,C23*%
X18100000Y40300000D03*
X23100000Y40300000D03*
%TD*%
D17*
%TO.C,C1*%
X-14300000Y37550000D03*
D19*
X-14300000Y40050000D03*
%TD*%
D15*
%TO.C,R33*%
X12600000Y41200000D03*
D16*
X7600000Y41200000D03*
%TD*%
D19*
%TO.C,C10*%
X-24000000Y-2800000D03*
X-19000000Y-2800000D03*
%TD*%
D15*
%TO.C,R12*%
X-36000000Y-1500000D03*
D16*
X-41000000Y-1500000D03*
%TD*%
D15*
%TO.C,R50*%
X43300000Y4400000D03*
D16*
X38300000Y4400000D03*
%TD*%
D15*
%TO.C,R13*%
X-27500000Y12800000D03*
D16*
X-32500000Y12800000D03*
%TD*%
D15*
%TO.C,R23*%
X-6400000Y-11800000D03*
D16*
X-11400000Y-11800000D03*
%TD*%
D17*
%TO.C,D2*%
X-46100000Y8300000D03*
D18*
X-51100000Y8300000D03*
%TD*%
D19*
%TO.C,C7*%
X-24000000Y-11200000D03*
X-19000000Y-11200000D03*
%TD*%
D15*
%TO.C,R47*%
X43300000Y2166667D03*
D16*
X38300000Y2166667D03*
%TD*%
D19*
%TO.C,C33*%
X43300000Y-8200000D03*
X38300000Y-8200000D03*
%TD*%
%TO.C,C40*%
X7500000Y-7500000D03*
X12500000Y-7500000D03*
%TD*%
D15*
%TO.C,R53*%
X17375000Y-10900000D03*
D16*
X22375000Y-10900000D03*
%TD*%
D15*
%TO.C,R28*%
X-11400000Y6100000D03*
D16*
X-6400000Y6100000D03*
%TD*%
D22*
%TO.C,C32*%
X33300000Y-7050000D03*
D23*
X33300000Y-8550000D03*
%TD*%
D24*
%TO.C,RV6*%
X50000000Y13500000D03*
D25*
X45000000Y13500000D03*
X40000000Y13500000D03*
%TD*%
D15*
%TO.C,R54*%
X43300000Y-2300000D03*
D16*
X38300000Y-2300000D03*
%TD*%
D26*
%TO.C,C19*%
X1250000Y1400000D03*
X-1250000Y1400000D03*
%TD*%
D19*
%TO.C,C37*%
X43300000Y10200000D03*
X38300000Y10200000D03*
%TD*%
D17*
%TO.C,D7*%
X-14000000Y3600000D03*
D18*
X-19000000Y3600000D03*
%TD*%
D15*
%TO.C,R37*%
X12600000Y25400000D03*
D16*
X7600000Y25400000D03*
%TD*%
D19*
%TO.C,C15*%
X-2500000Y-9800000D03*
X2500000Y-9800000D03*
%TD*%
D24*
%TO.C,RV7*%
X20000000Y-14500000D03*
D25*
X15000000Y-14500000D03*
X10000000Y-14500000D03*
%TD*%
D24*
%TO.C,RV5*%
X20000000Y13300000D03*
D25*
X15000000Y13300000D03*
X10000000Y13300000D03*
D24*
X20000000Y18300000D03*
D25*
X15000000Y18300000D03*
X10000000Y18300000D03*
%TD*%
D19*
%TO.C,C39*%
X43300000Y-5000000D03*
X38300000Y-5000000D03*
%TD*%
D15*
%TO.C,R9*%
X-41000000Y8300000D03*
D16*
X-36000000Y8300000D03*
%TD*%
D17*
%TO.C,C43*%
X-14300000Y28250000D03*
D19*
X-14300000Y30750000D03*
%TD*%
D15*
%TO.C,R36*%
X7600000Y27700000D03*
D16*
X12600000Y27700000D03*
%TD*%
D15*
%TO.C,R45*%
X52500000Y-9500000D03*
D16*
X47500000Y-9500000D03*
%TD*%
D19*
%TO.C,C8*%
X-19000000Y-7000000D03*
X-24000000Y-7000000D03*
%TD*%
D17*
%TO.C,D4*%
X-46100000Y10600000D03*
D18*
X-51100000Y10600000D03*
%TD*%
D19*
%TO.C,C26*%
X18100000Y36700000D03*
X23100000Y36700000D03*
%TD*%
D15*
%TO.C,R30*%
X-11400000Y11000000D03*
D16*
X-6400000Y11000000D03*
%TD*%
D20*
%TO.C,J4*%
X-36350000Y-17500000D03*
D21*
X-33810000Y-17500000D03*
X-31270000Y-17500000D03*
X-28730000Y-17500000D03*
X-26190000Y-17500000D03*
X-23650000Y-17500000D03*
%TD*%
D15*
%TO.C,R58*%
X12500000Y500000D03*
D16*
X7500000Y500000D03*
%TD*%
D17*
%TO.C,D3*%
X-46100000Y6000000D03*
D18*
X-51100000Y6000000D03*
%TD*%
D15*
%TO.C,R7*%
X-36000000Y-12100000D03*
D16*
X-41000000Y-12100000D03*
%TD*%
D19*
%TO.C,C30*%
X18100000Y21200000D03*
X23100000Y21200000D03*
%TD*%
D15*
%TO.C,R26*%
X-6400000Y1200000D03*
D16*
X-11400000Y1200000D03*
%TD*%
D15*
%TO.C,R44*%
X52500000Y-2300000D03*
D16*
X47500000Y-2300000D03*
%TD*%
D15*
%TO.C,R40*%
X50200000Y23100000D03*
D16*
X50200000Y18100000D03*
%TD*%
D15*
%TO.C,R41*%
X52600000Y18100000D03*
D16*
X52600000Y23100000D03*
%TD*%
D15*
%TO.C,R5*%
X-36000000Y-5740000D03*
D16*
X-41000000Y-5740000D03*
%TD*%
D15*
%TO.C,R59*%
X22375000Y-8720000D03*
D16*
X17375000Y-8720000D03*
%TD*%
D17*
%TO.C,D9*%
X12500000Y7400000D03*
D18*
X7500000Y7400000D03*
%TD*%
D24*
%TO.C,RV4*%
X-10000000Y13500000D03*
D25*
X-15000000Y13500000D03*
X-20000000Y13500000D03*
%TD*%
D19*
%TO.C,C34*%
X43300000Y-11400000D03*
X38300000Y-11400000D03*
%TD*%
D15*
%TO.C,R39*%
X7600000Y20800000D03*
D16*
X12600000Y20800000D03*
%TD*%
D17*
%TO.C,C13*%
X-51500000Y17750000D03*
D19*
X-51500000Y20250000D03*
%TD*%
D24*
%TO.C,RV1*%
X-40000000Y-14500000D03*
D25*
X-45000000Y-14500000D03*
X-50000000Y-14500000D03*
%TD*%
D19*
%TO.C,C22*%
X-2500000Y10800000D03*
X2500000Y10800000D03*
%TD*%
%TO.C,C27*%
X23100000Y31000000D03*
X18100000Y31000000D03*
%TD*%
D17*
%TO.C,D11*%
X22500000Y-1540000D03*
D18*
X17500000Y-1540000D03*
%TD*%
D17*
%TO.C,D10*%
X12500000Y10100000D03*
D18*
X7500000Y10100000D03*
%TD*%
D19*
%TO.C,C36*%
X38300000Y7100000D03*
X43300000Y7100000D03*
%TD*%
D15*
%TO.C,R14*%
X-32500000Y10600000D03*
D16*
X-27500000Y10600000D03*
%TD*%
D19*
%TO.C,C38*%
X12500000Y-10900000D03*
X7500000Y-10900000D03*
%TD*%
%TO.C,C16*%
X-2500000Y-13600000D03*
X2500000Y-13600000D03*
%TD*%
D17*
%TO.C,SW3*%
X-3810000Y18190000D03*
D18*
X-1270000Y18190000D03*
X1270000Y18190000D03*
X3810000Y18190000D03*
X3810000Y25810000D03*
X1270000Y25810000D03*
X-1270000Y25810000D03*
X-3810000Y25810000D03*
%TD*%
D19*
%TO.C,C29*%
X18100000Y24466667D03*
X23100000Y24466667D03*
%TD*%
D17*
%TO.C,C42*%
X-21200000Y28150000D03*
D19*
X-21200000Y30650000D03*
%TD*%
D24*
%TO.C,RV8*%
X50000000Y-14500000D03*
D25*
X45000000Y-14500000D03*
X40000000Y-14500000D03*
%TD*%
D15*
%TO.C,R24*%
X-11400000Y-7000000D03*
D16*
X-6400000Y-7000000D03*
%TD*%
D22*
%TO.C,C41*%
X26700000Y-7030000D03*
D23*
X26700000Y-8530000D03*
%TD*%
D19*
%TO.C,C5*%
X-50975000Y-11200000D03*
X-45975000Y-11200000D03*
%TD*%
D15*
%TO.C,R15*%
X-27500000Y-7200000D03*
D16*
X-32500000Y-7200000D03*
%TD*%
D15*
%TO.C,R46*%
X47500000Y-11900000D03*
D16*
X52500000Y-11900000D03*
%TD*%
D17*
%TO.C,C2*%
X-21200000Y37550000D03*
D19*
X-21200000Y40050000D03*
%TD*%
D15*
%TO.C,R56*%
X7500000Y-2012500D03*
D16*
X12500000Y-2012500D03*
%TD*%
D15*
%TO.C,R16*%
X-27500000Y-9600000D03*
D16*
X-32500000Y-9600000D03*
%TD*%
D15*
%TO.C,R19*%
X-11400000Y-9400000D03*
D16*
X-6400000Y-9400000D03*
%TD*%
D19*
%TO.C,C4*%
X-50975000Y-7000000D03*
X-45975000Y-7000000D03*
%TD*%
%TO.C,C21*%
X2500000Y7600000D03*
X-2500000Y7600000D03*
%TD*%
D24*
%TO.C,RV2*%
X-40000000Y13500000D03*
D25*
X-45000000Y13500000D03*
X-50000000Y13500000D03*
%TD*%
D24*
%TO.C,RV3*%
X-10000000Y-14500000D03*
D25*
X-15000000Y-14500000D03*
X-20000000Y-14500000D03*
%TD*%
D15*
%TO.C,R38*%
X7600000Y23100000D03*
D16*
X12600000Y23100000D03*
%TD*%
D15*
%TO.C,R29*%
X-6400000Y8550000D03*
D16*
X-11400000Y8550000D03*
%TD*%
D15*
%TO.C,R10*%
X-41000000Y10600000D03*
D16*
X-36000000Y10600000D03*
%TD*%
D15*
%TO.C,R8*%
X-41000000Y-9980000D03*
D16*
X-36000000Y-9980000D03*
%TD*%
D15*
%TO.C,R4*%
X-41000000Y-7860000D03*
D16*
X-36000000Y-7860000D03*
%TD*%
D15*
%TO.C,R55*%
X12500000Y-4525000D03*
D16*
X7500000Y-4525000D03*
%TD*%
D15*
%TO.C,R43*%
X52500000Y-7100000D03*
D16*
X47500000Y-7100000D03*
%TD*%
D15*
%TO.C,R34*%
X7600000Y39000000D03*
D16*
X12600000Y39000000D03*
%TD*%
D17*
%TO.C,C12*%
X-51500000Y29450000D03*
D19*
X-51500000Y31950000D03*
%TD*%
D27*
%TO.C,SW1*%
X-30000000Y-2700000D03*
X-30000000Y2000000D03*
X-30000000Y6700000D03*
%TD*%
%TO.C,SW2*%
X27600000Y-2700000D03*
X27600000Y2000000D03*
X27600000Y6700000D03*
X32400000Y-2700000D03*
X32400000Y2000000D03*
X32400000Y6700000D03*
%TD*%
M02*
