M48
; DRILL file {KiCad 9.0.7} date 2026-03-13T00:08:13-0230
; FORMAT={-:-/ absolute / inch / decimal}
; #@! TF.CreationDate,2026-03-13T00:08:13-02:30
; #@! TF.GenerationSoftware,Kicad,Pcbnew,9.0.7
; #@! TF.FileFunction,Plated,1,4,PTH
FMAT,2
INCH
; #@! TA.AperFunction,Plated,PTH,ViaDrill
T1C0.0157
; #@! TA.AperFunction,Plated,PTH,ComponentDrill
T2C0.0236
; #@! TA.AperFunction,Plated,PTH,ComponentDrill
T3C0.0256
; #@! TA.AperFunction,Plated,PTH,ComponentDrill
T4C0.0276
; #@! TA.AperFunction,Plated,PTH,ComponentDrill
T5C0.0295
; #@! TA.AperFunction,Plated,PTH,ComponentDrill
T6C0.0315
; #@! TA.AperFunction,Plated,PTH,ComponentDrill
T7C0.0394
; #@! TA.AperFunction,Plated,PTH,ComponentDrill
T8C0.0472
; #@! TA.AperFunction,Plated,PTH,ComponentDrill
T9C0.0591
%
G90
G05
T1
X-2.1102Y0.9252
X-1.9016Y0.0197
X-1.8425Y-0.6614
X-1.7362Y0.0197
X-1.5551Y0.0236
X-1.5276Y0.2362
X-1.3819Y0.2362
X-1.3386Y0.1732
X-1.3386Y0.0748
X-1.2953Y-0.5512
X-0.9291Y0.7983
X-0.9291Y0.6033
X-0.8268Y0.9488
X-0.7809Y0.7152
X-0.7309Y0.714
X-0.6811Y0.7992
X-0.6614Y0.9488
X-0.5827Y0.7913
X-0.5394Y-0.2441
X-0.4488Y-0.0984
X-0.3701Y0.8071
X-0.3386Y-0.2008
X-0.2874Y1.3031
X-0.2874Y0.8071
X-0.252Y1.5906
X-0.1614Y-0.1929
X-0.122Y-0.2638
X-0.0787Y-0.6575
X0.1919Y1.2913
X0.2992Y1.4528
X0.3976Y1.0
X0.4213Y1.3307
X0.4213Y1.2913
X0.4803Y1.2283
X0.4803Y1.1693
X0.5079Y0.1496
X0.563Y1.2913
X0.6457Y0.3976
X0.6457Y0.248
X0.8622Y0.2126
X0.878Y1.3307
X1.0866Y0.5118
X1.2323Y0.5118
X1.3307Y0.5118
X1.4489Y-0.0157
X1.7953Y0.0472
X1.7953Y-0.2598
X1.8307Y0.3819
X1.8307Y0.2323
X1.9961Y0.0906
X2.0433Y0.4016
X2.0433Y0.0906
T2
X1.0512Y-0.2768
X1.0512Y-0.3358
X1.311Y-0.2776
X1.311Y-0.3366
T4
X-1.6142Y0.4173
X-1.6142Y0.3268
X-1.6142Y-0.0591
X-1.6142Y-0.1425
X-1.6142Y-0.226
X-1.6142Y-0.3094
X-1.6142Y-0.3929
X-1.6142Y-0.4764
X-1.4173Y0.4173
X-1.4173Y0.3268
X-1.4173Y-0.0591
X-1.4173Y-0.1425
X-1.4173Y-0.226
X-1.4173Y-0.3094
X-1.4173Y-0.3929
X-1.4173Y-0.4764
X-1.2795Y0.5039
X-1.2795Y0.4173
X-1.2795Y-0.2835
X-1.2795Y-0.378
X-1.0827Y0.5039
X-1.0827Y0.4173
X-1.0827Y-0.2835
X-1.0827Y-0.378
X-0.4488Y0.4331
X-0.4488Y0.3366
X-0.4488Y0.2402
X-0.4488Y0.1437
X-0.4488Y0.0472
X-0.4488Y-0.2756
X-0.4488Y-0.3701
X-0.4488Y-0.4646
X-0.252Y0.4331
X-0.252Y0.3366
X-0.252Y0.2402
X-0.252Y0.1437
X-0.252Y0.0472
X-0.252Y-0.2756
X-0.252Y-0.3701
X-0.252Y-0.4646
X0.2953Y0.0197
X0.2953Y-0.0792
X0.2953Y-0.1781
X0.2992Y1.622
X0.2992Y1.5354
X0.2992Y1.0906
X0.2992Y1.0
X0.2992Y0.9094
X0.2992Y0.8189
X0.4921Y0.0197
X0.4921Y-0.0792
X0.4921Y-0.1781
X0.4961Y1.622
X0.4961Y1.5354
X0.4961Y1.0906
X0.4961Y1.0
X0.4961Y0.9094
X0.4961Y0.8189
X0.6841Y-0.2575
X0.6841Y-0.3433
X0.6841Y-0.4291
X0.8809Y-0.2575
X0.8809Y-0.3433
X0.8809Y-0.4291
X1.5079Y0.1732
X1.5079Y0.0853
X1.5079Y-0.0026
X1.5079Y-0.0906
X1.7047Y0.1732
X1.7047Y0.0853
X1.7047Y-0.0026
X1.7047Y-0.0906
X1.8701Y-0.0906
X1.8701Y-0.185
X1.8701Y-0.2795
X1.8701Y-0.374
X1.8701Y-0.4685
X1.8898Y0.8346
X1.8898Y0.748
X2.0669Y-0.0906
X2.0669Y-0.185
X2.0669Y-0.2795
X2.0669Y-0.374
X2.0669Y-0.4685
X2.0866Y0.8346
X2.0866Y0.748
T5
X-0.0492Y0.0551
X0.0492Y0.0551
T6
X-2.0118Y0.4173
X-2.0118Y0.3268
X-2.0118Y0.2362
X-2.0069Y-0.1102
X-2.0069Y-0.2756
X-2.0069Y-0.4409
X-1.9882Y1.2579
X-1.9882Y1.1594
X-1.9882Y0.7972
X-1.9882Y0.6988
X-1.815Y0.4173
X-1.815Y0.3268
X-1.815Y0.2362
X-1.81Y-0.1102
X-1.81Y-0.2756
X-1.81Y-0.4409
X-0.9449Y-0.1102
X-0.9449Y-0.2756
X-0.9449Y-0.4409
X-0.8346Y1.5768
X-0.8346Y1.4783
X-0.8346Y1.2067
X-0.8346Y1.1083
X-0.748Y0.3346
X-0.748Y0.2382
X-0.748Y0.1417
X-0.748Y0.0453
X-0.748Y-0.1102
X-0.748Y-0.2756
X-0.748Y-0.4409
X-0.563Y1.5768
X-0.563Y1.4783
X-0.563Y1.2106
X-0.563Y1.1122
X-0.5512Y0.3346
X-0.5512Y0.2382
X-0.5512Y0.1417
X-0.5512Y0.0453
X-0.15Y1.0161
X-0.15Y0.7161
X-0.0984Y0.4252
X-0.0984Y0.2992
X-0.0984Y0.1732
X-0.0984Y-0.3858
X-0.0984Y-0.5354
X-0.05Y1.0161
X-0.05Y0.7161
X0.05Y1.0161
X0.05Y0.7161
X0.0984Y0.4252
X0.0984Y0.2992
X0.0984Y0.1732
X0.0984Y-0.3858
X0.0984Y-0.5354
X0.15Y1.0161
X0.15Y0.7161
X0.2953Y0.3976
X0.2953Y0.2913
X0.2953Y-0.2953
X0.2953Y-0.4291
X0.4921Y0.3976
X0.4921Y0.2913
X0.4921Y-0.2953
X0.4921Y-0.4291
X0.689Y0.0354
X0.689Y-0.0606
X0.7126Y1.5866
X0.7126Y1.4449
X0.7126Y1.2205
X0.7126Y1.0919
X0.7126Y0.9633
X0.7126Y0.8346
X0.8858Y0.0354
X0.8858Y-0.0606
X0.9094Y1.5866
X0.9094Y1.4449
X0.9094Y1.2205
X0.9094Y1.0919
X0.9094Y0.9633
X0.9094Y0.8346
X1.5079Y0.4016
X1.5079Y0.2795
X1.5079Y-0.1969
X1.5079Y-0.3228
X1.5079Y-0.4488
X1.7047Y0.4016
X1.7047Y0.2795
X1.7047Y-0.1969
X1.7047Y-0.3228
X1.7047Y-0.4488
T7
X-1.4311Y-0.689
X-1.3311Y-0.689
X-1.2311Y-0.689
X-1.1311Y-0.689
X-1.0311Y-0.689
X-0.9311Y-0.689
X0.9311Y-0.689
X1.0311Y-0.689
X1.1311Y-0.689
X1.2311Y-0.689
X1.3311Y-0.689
X1.4311Y-0.689
T8
X-1.9685Y0.5315
X-1.9685Y-0.5709
X-1.7717Y0.5315
X-1.7717Y-0.5709
X-1.5748Y0.5315
X-1.5748Y-0.5709
X-0.7874Y0.5315
X-0.7874Y-0.5709
X-0.5906Y0.5315
X-0.5906Y-0.5709
X-0.3937Y0.5315
X-0.3937Y-0.5709
X0.3937Y0.7205
X0.3937Y0.5236
X0.3937Y-0.5709
X0.5906Y0.7205
X0.5906Y0.5236
X0.5906Y-0.5709
X0.7874Y0.7205
X0.7874Y0.5236
X0.7874Y-0.5709
X1.5748Y0.5315
X1.5748Y-0.5709
X1.7717Y0.5315
X1.7717Y-0.5709
X1.9685Y0.5315
X1.9685Y-0.5709
T9
X-1.7421Y1.4311
X-1.7421Y1.1811
X-1.7421Y0.9311
X-1.0925Y1.4311
X-1.0925Y1.1811
X-1.0925Y0.9311
X1.0925Y1.4311
X1.0925Y1.1811
X1.0925Y0.9311
X1.7421Y1.4311
X1.7421Y1.1811
X1.7421Y0.9311
T2
G00X1.9291Y1.3583
M15
G01X1.9843Y1.3583
M16
G05
G00X1.9291Y1.0039
M15
G01X1.9843Y1.0039
M16
G05
G00X2.0866Y1.2087
M15
G01X2.0866Y1.1535
M16
G05
T3
G00X-0.185Y1.2431
M15
G01X-0.185Y1.3396
M16
G05
G00X-0.0482Y1.4094
M15
G01X0.0482Y1.4094
M16
G05
G00X-0.0482Y1.1732
M15
G01X0.0482Y1.1732
M16
G05
T8
G00X-1.1535Y0.2638
M15
G01X-1.2087Y0.2638
M16
G05
G00X-1.1535Y0.0787
M15
G01X-1.2087Y0.0787
M16
G05
G00X-1.1535Y-0.1063
M15
G01X-1.2087Y-0.1063
M16
G05
G00X1.0591Y0.2638
M15
G01X1.1142Y0.2638
M16
G05
G00X1.0591Y0.0787
M15
G01X1.1142Y0.0787
M16
G05
G00X1.0591Y-0.1063
M15
G01X1.1142Y-0.1063
M16
G05
G00X1.248Y0.2638
M15
G01X1.3031Y0.2638
M16
G05
G00X1.248Y0.0787
M15
G01X1.3031Y0.0787
M16
G05
G00X1.248Y-0.1063
M15
G01X1.3031Y-0.1063
M16
G05
M30
